<?xml version="1.0" encoding="UTF-8"?>
<svg width="86px" height="86px" viewBox="0 0 86 86" version="1.1" xmlns="http://www.w3.org/2000/svg" xmlns:xlink="http://www.w3.org/1999/xlink">
	<title>Combined Shape</title>
	<g id="Page-1" stroke="none" stroke-width="1" fill="none" fill-rule="evenodd">
		<g id="-" transform="translate(-412.000000, -396.000000)" fill="#000000" fill-rule="nonzero">
			<path d="M446.325473,446.579382 L451.395467,463.241289 C451.932922,464.892979 453.47721,466 455.23648,466 C455.655695,466 456.071327,465.932801 456.47621,465.805476 C457.551121,465.462405 458.443296,464.673697 458.934172,463.609117 L458.934172,463.609117 L463.581368,452.899659 L466.20415,456.783076 C466.705775,457.522269 467.540622,457.96437 468.439963,457.96437 L468.439963,457.96437 L489.041661,457.963765 L489.041667,478.416667 C489.041667,480.395687 487.437354,482 485.458333,482 L424.541667,482 C422.562646,482 420.958333,480.395687 420.958333,478.416667 L420.957661,457.981765 L438.041497,457.982054 C439.505422,457.982054 440.826351,457.22176 441.546201,455.976144 L441.649613,455.785696 L446.325473,446.579382 Z M457.533417,397.049917 L496.950083,436.466583 C497.974587,437.491396 498.281012,439.032381 497.726513,440.371179 C497.172014,441.709976 495.865752,442.583024 494.416667,442.583333 L489.9375,442.583333 C489.442745,442.583333 489.041667,442.984412 489.041667,443.479167 L489.041661,452.658765 L469.87676,452.659156 L466.669944,447.912759 C466.23998,447.276133 465.634447,446.78098 464.921423,446.476814 C464.416215,446.261069 463.87876,446.151428 463.326973,446.151428 C461.714607,446.151428 460.256312,447.095756 459.614949,448.563532 L459.614949,448.563532 L455.458628,458.155358 L450.510457,441.886036 C450.19515,440.796699 449.421215,439.891276 448.389301,439.399659 C447.833931,439.134399 447.24273,439 446.633614,439 C446.182151,439 445.734272,439.074273 445.304308,439.222819 C444.286726,439.572963 443.473377,440.287398 443.014749,441.217579 L443.014749,441.217579 L437.210232,452.67684 L420.957661,452.676765 L420.958333,443.479167 C420.958333,442.984412 420.557255,442.583333 420.0625,442.583333 L415.583333,442.583333 C414.134248,442.583024 412.827986,441.709976 412.273487,440.371179 C411.718988,439.032381 412.025413,437.491396 413.049917,436.466583 L424.280083,425.236417 C424.448323,425.068312 424.542487,424.839997 424.541667,424.602167 L424.541667,403.166667 C424.541667,401.187646 426.14598,399.583333 428.125,399.583333 L438.875,399.583333 C440.85402,399.583333 442.458333,401.187646 442.458333,403.166667 L442.458333,404.893833 C442.457684,405.256662 442.675954,405.584052 443.011128,405.722989 C443.346302,405.861925 443.732183,405.784967 443.988417,405.528083 L452.466583,397.049917 C453.865874,395.651048 456.134126,395.651048 457.533417,397.049917 Z" id="Combined-Shape"></path>
		</g>
	</g>
</svg>
